<mxfile host="65bd71144e">
    <diagram id="9S3nOr2m1_IdPjpVsuCn" name="Page-1">
        <mxGraphModel dx="1409" dy="1486" grid="1" gridSize="10" guides="1" tooltips="1" connect="1" arrows="1" fold="1" page="1" pageScale="1" pageWidth="827" pageHeight="1169" math="0" shadow="0">
            <root>
                <mxCell id="0"/>
                <mxCell id="1" parent="0"/>
                <mxCell id="33" value="25" style="ellipse;whiteSpace=wrap;html=1;" vertex="1" parent="1">
                    <mxGeometry x="130" y="500" width="80" height="50" as="geometry"/>
                </mxCell>
                <mxCell id="34" value="" style="endArrow=none;html=1;entryX=0;entryY=1;entryDx=0;entryDy=0;exitX=0.5;exitY=0;exitDx=0;exitDy=0;" edge="1" parent="1" source="36" target="33">
                    <mxGeometry width="50" height="50" relative="1" as="geometry">
                        <mxPoint x="120" y="590" as="sourcePoint"/>
                        <mxPoint x="170" y="520" as="targetPoint"/>
                    </mxGeometry>
                </mxCell>
                <mxCell id="35" value="" style="endArrow=none;html=1;entryX=1;entryY=1;entryDx=0;entryDy=0;exitX=0.5;exitY=0;exitDx=0;exitDy=0;" edge="1" parent="1" source="38" target="33">
                    <mxGeometry width="50" height="50" relative="1" as="geometry">
                        <mxPoint x="354" y="600" as="sourcePoint"/>
                        <mxPoint x="245" y="540" as="targetPoint"/>
                    </mxGeometry>
                </mxCell>
                <mxCell id="36" value="14" style="ellipse;whiteSpace=wrap;html=1;" vertex="1" parent="1">
                    <mxGeometry x="20" y="590" width="80" height="50" as="geometry"/>
                </mxCell>
                <mxCell id="38" value="85" style="ellipse;whiteSpace=wrap;html=1;" vertex="1" parent="1">
                    <mxGeometry x="322" y="590" width="80" height="50" as="geometry"/>
                </mxCell>
                <mxCell id="39" value="" style="endArrow=none;html=1;entryX=0;entryY=1;entryDx=0;entryDy=0;exitX=0.5;exitY=0;exitDx=0;exitDy=0;" edge="1" parent="1" source="40" target="38">
                    <mxGeometry width="50" height="50" relative="1" as="geometry">
                        <mxPoint x="282" y="680" as="sourcePoint"/>
                        <mxPoint x="292" y="630" as="targetPoint"/>
                    </mxGeometry>
                </mxCell>
                <mxCell id="40" value="58" style="ellipse;whiteSpace=wrap;html=1;" vertex="1" parent="1">
                    <mxGeometry x="252" y="660" width="80" height="50" as="geometry"/>
                </mxCell>
                <mxCell id="42" value="52" style="ellipse;whiteSpace=wrap;html=1;" vertex="1" parent="1">
                    <mxGeometry x="180" y="730" width="80" height="50" as="geometry"/>
                </mxCell>
                <mxCell id="43" value="" style="endArrow=none;html=1;entryX=0.5;entryY=0;entryDx=0;entryDy=0;exitX=0;exitY=1;exitDx=0;exitDy=0;" edge="1" parent="1" source="40" target="42">
                    <mxGeometry width="50" height="50" relative="1" as="geometry">
                        <mxPoint x="302" y="690" as="sourcePoint"/>
                        <mxPoint x="343.7157287525381" y="642.6776695296637" as="targetPoint"/>
                    </mxGeometry>
                </mxCell>
                <mxCell id="44" value="" style="group" vertex="1" connectable="0" parent="1">
                    <mxGeometry x="452" y="500" width="444" height="240" as="geometry"/>
                </mxCell>
                <mxCell id="5" value="14" style="ellipse;whiteSpace=wrap;html=1;" vertex="1" parent="44">
                    <mxGeometry y="90" width="80" height="50" as="geometry"/>
                </mxCell>
                <mxCell id="7" value="85" style="ellipse;whiteSpace=wrap;html=1;" vertex="1" parent="44">
                    <mxGeometry x="364" y="100" width="80" height="50" as="geometry"/>
                </mxCell>
                <mxCell id="8" value="" style="endArrow=none;html=1;entryX=0;entryY=1;entryDx=0;entryDy=0;exitX=0.5;exitY=0;exitDx=0;exitDy=0;" edge="1" parent="44" source="9" target="7">
                    <mxGeometry width="50" height="50" relative="1" as="geometry">
                        <mxPoint x="324" y="190" as="sourcePoint"/>
                        <mxPoint x="334" y="140" as="targetPoint"/>
                    </mxGeometry>
                </mxCell>
                <mxCell id="9" value="58" style="ellipse;whiteSpace=wrap;html=1;" vertex="1" parent="44">
                    <mxGeometry x="294" y="190" width="80" height="50" as="geometry"/>
                </mxCell>
                <mxCell id="22" value="52" style="ellipse;whiteSpace=wrap;html=1;" vertex="1" parent="44">
                    <mxGeometry x="212" width="80" height="50" as="geometry"/>
                </mxCell>
                <mxCell id="23" value="" style="endArrow=none;html=1;entryX=0;entryY=1;entryDx=0;entryDy=0;exitX=0.5;exitY=0;exitDx=0;exitDy=0;" edge="1" parent="44" source="25" target="22">
                    <mxGeometry width="50" height="50" relative="1" as="geometry">
                        <mxPoint x="100" y="90" as="sourcePoint"/>
                        <mxPoint x="150" y="20" as="targetPoint"/>
                    </mxGeometry>
                </mxCell>
                <mxCell id="24" value="" style="endArrow=none;html=1;entryX=1;entryY=1;entryDx=0;entryDy=0;exitX=0.5;exitY=0;exitDx=0;exitDy=0;" edge="1" parent="44" source="27" target="22">
                    <mxGeometry width="50" height="50" relative="1" as="geometry">
                        <mxPoint x="334" y="100" as="sourcePoint"/>
                        <mxPoint x="225" y="40" as="targetPoint"/>
                    </mxGeometry>
                </mxCell>
                <mxCell id="25" value="14" style="ellipse;whiteSpace=wrap;html=1;" vertex="1" parent="44">
                    <mxGeometry y="90" width="80" height="50" as="geometry"/>
                </mxCell>
                <mxCell id="26" value="" style="endArrow=none;html=1;entryX=1;entryY=1;entryDx=0;entryDy=0;exitX=0.5;exitY=0;exitDx=0;exitDy=0;" edge="1" parent="44" source="30" target="25">
                    <mxGeometry width="50" height="50" relative="1" as="geometry">
                        <mxPoint x="130" y="200" as="sourcePoint"/>
                        <mxPoint x="75" y="150" as="targetPoint"/>
                    </mxGeometry>
                </mxCell>
                <mxCell id="27" value="85" style="ellipse;whiteSpace=wrap;html=1;" vertex="1" parent="44">
                    <mxGeometry x="364" y="100" width="80" height="50" as="geometry"/>
                </mxCell>
                <mxCell id="28" value="" style="endArrow=none;html=1;entryX=0;entryY=1;entryDx=0;entryDy=0;exitX=0.5;exitY=0;exitDx=0;exitDy=0;" edge="1" parent="44" source="29" target="27">
                    <mxGeometry width="50" height="50" relative="1" as="geometry">
                        <mxPoint x="324" y="190" as="sourcePoint"/>
                        <mxPoint x="334" y="140" as="targetPoint"/>
                    </mxGeometry>
                </mxCell>
                <mxCell id="29" value="58" style="ellipse;whiteSpace=wrap;html=1;" vertex="1" parent="44">
                    <mxGeometry x="294" y="190" width="80" height="50" as="geometry"/>
                </mxCell>
                <mxCell id="30" value="25" style="ellipse;whiteSpace=wrap;html=1;" vertex="1" parent="44">
                    <mxGeometry x="100" y="170" width="80" height="50" as="geometry"/>
                </mxCell>
            </root>
        </mxGraphModel>
    </diagram>
</mxfile>